<svg xmlns="http://www.w3.org/2000/svg" width="27" height="27" viewBox="0 0 27 27">
    <g fill="none" fill-rule="evenodd">
        <g fill="#FFF" fill-rule="nonzero">
            <g>
                <g>
                    <path d="M20.931 21.052c1.194-.08 2.23.828 2.31 2.005.031.589-.144 1.146-.526 1.575-.383.446-.908.7-1.481.748h-.16c-1.13 0-2.07-.891-2.15-2.02-.08-1.178.813-2.228 2.007-2.308zm-12.282-.004c1.192 0 2.162.968 2.162 2.16 0 1.19-.97 2.16-2.162 2.16-1.193 0-2.162-.97-2.162-2.16 0-1.192.97-2.16 2.162-2.16zM4.61 1.62c.45 0 .85.3.966.732l4.079 14.735h11.12l3.696-8.482h-12.32c-.549 0-.998-.449-.998-.998 0-.549.45-.998.999-.998h13.85c.333 0 .65.167.833.45.183.282.216.631.083.947l-4.561 10.478c-.167.366-.516.599-.916.599H8.906c-.45 0-.849-.3-.965-.732L3.862 3.616H1c-.55 0-.999-.45-.999-.998 0-.549.45-.998.999-.998z" transform="translate(-280 -17) translate(271 8) translate(9 9)"/>
                </g>
            </g>
        </g>
    </g>
</svg>
