<svg xmlns="http://www.w3.org/2000/svg" width="23" height="21" viewBox="0 0 23 21">
    <g fill="none" fill-rule="evenodd">
        <g fill="#333" fill-rule="nonzero">
            <g>
                <path d="M870.891 87.32c.95 1.003 1.288 2.22 1.02 3.573-.294 1.464-1.184 2.451-2.576 3.021-.216.086-.458.137-.683.188-.13.034-.173.093-.164.22.026.477.043.946.052 1.422.009.417-.164.775-.44 1.072-.338.366-.701.715-1.055 1.064-1.574 1.557-3.155 3.106-4.729 4.655-1.357 1.336-2.714 2.664-4.062 4-.562.553-1.565.68-2.239.008-1.893-1.897-3.812-3.761-5.722-5.642-.26-.255-.502-.527-.778-.766-.744-.646-.614-1.617-.043-2.212.501-.52 1.028-1.005 1.538-1.515 2.663-2.621 5.316-5.242 7.979-7.863.224-.222.475-.451.752-.588.259-.127.579-.17.873-.178.579-.009 1.15.085 1.711.085.614 0 1.227-.009 1.833 0 .138 0 .224-.034.302-.145.648-.902 1.513-1.455 2.62-1.642 1.495-.264 2.782.153 3.811 1.242zm-10.243 1.574c-.294-.009-.51.093-.709.289-.674.672-1.348 1.336-2.022 2l-3.804 3.719c-.415.408-.838.808-1.253 1.225-.406.409-.804.826-1.21 1.234-.208.204-.432.391-.64.596l-.743.732c-.19.195-.19.46.017.655.631.613 1.254 1.225 1.885 1.847 1.564 1.54 3.129 3.072 4.684 4.612.139.136.277.153.424.077.104-.06.207-.128.294-.213l3.293-3.243c1.617-1.59 3.224-3.19 4.832-4.782.173-.17.363-.324.536-.485.277-.264.562-.528.821-.809.156-.17.346-.374.363-.578.044-.485-.008-.979-.034-1.464 0-.06-.104-.153-.165-.162-.544-.085-1.063-.247-1.53-.536-.112-.068-.19-.051-.276.051-.112.136-.242.264-.38.366-.657.494-1.582.528-2.274.094-.82-.528-1.072-1.277-.89-2.11.268-1.269 1.547-1.813 2.697-1.405.743.264 1.132.826 1.27 1.583.018.094.07.213.139.272.337.273.726.46 1.14.57.208.051.243.026.243-.178v-1.745c-.018 0-.06-1.166-.06-1.744 0-.264-.07-.324-.338-.332-2.1-.043-4.2-.085-6.31-.136zm3.206 2.307c-.686 0-1.242.547-1.242 1.223 0 .675.556 1.223 1.242 1.223.687 0 1.243-.548 1.243-1.223 0-.676-.556-1.223-1.243-1.223zm2.88-3.882c-.303.102-.606.264-.839.502.009.017.009.043.017.06.087.008.164.008.25.017.338.008.675.017 1.012.042.726.051 1.202.57 1.219 1.294.017 1.191.052 2.383.07 3.566 0 .187.06.238.25.178.968-.306 1.642-.902 1.988-1.846.406-1.107.199-2.11-.553-2.996-.83-.978-2.213-1.293-3.415-.817z" transform="translate(-849 -86)"/>
            </g>
        </g>
    </g>
</svg>
