<svg xmlns="http://www.w3.org/2000/svg" width="48" height="44" viewBox="0 0 48 44">
    <defs>
        <filter id="2f65afyisa">
            <feColorMatrix in="SourceGraphic" values="0 0 0 0 1.000000 0 0 0 0 1.000000 0 0 0 0 1.000000 0 0 0 1.000000 0"/>
        </filter>
    </defs>
    <g fill="none" fill-rule="evenodd">
        <g>
            <g filter="url(#2f65afyisa)" transform="translate(-617 -1817) translate(459 1819)">
                <g>
                    <g>
                        <path stroke="#D54400" stroke-linecap="round" stroke-linejoin="round" stroke-width="2.063" d="M39.84 25.919C37.4 34.409 29.598 40.63 20.317 40.63 9.109 40.631 0 31.521 0 20.316 0 9.109 9.11 0 20.316 0 30.73 0 39.29 7.838 40.494 17.91c.034.378.069.756.103 1.168" transform="translate(160)"/>
                        <path stroke="#D54400" stroke-linecap="round" stroke-linejoin="round" stroke-width="2.063" d="M35.338 15.125L40.597 19.078 44 13.509" transform="translate(160)"/>
                        <path fill="#D54400" d="M24.784 24.956c0-.962-.24-1.753-.756-2.337-.515-.585-1.375-1.1-2.544-1.478-.171-.035-.24.034-.24.172v6.84c0 .172.103.24.275.206 2.165-.378 3.265-1.512 3.265-3.403m-5.706-13.13c-2.131.24-3.197 1.27-3.197 3.058 0 1.72 1.1 2.888 3.266 3.575.069.035.103 0 .137-.034.035-.034.07-.103.07-.172v-6.222c0-.206-.104-.275-.276-.206m.035 8.663c-3.61-1.032-5.432-2.922-5.432-5.638 0-1.41.482-2.544 1.41-3.437.928-.894 2.268-1.41 4.022-1.547.171 0 .275-.103.275-.275V7.803c0-.24.103-.481.275-.653.171-.172.412-.275.653-.275.24 0 .48.103.653.275.172.172.275.413.275.653v1.753c0 .172.103.275.275.275 1.375.103 2.647.275 3.85.55.31.07.55.24.722.482.206.24.31.515.31.825 0 .24-.104.446-.31.618-.207.172-.447.207-.722.103-1.272-.378-2.544-.584-3.85-.687-.172 0-.275.069-.275.24v6.704c0 .172.103.275.275.31 2.062.583 3.506 1.34 4.331 2.302.825.963 1.238 2.166 1.238 3.61 0 1.512-.482 2.75-1.444 3.678-.963.928-2.338 1.478-4.125 1.684-.172.034-.275.138-.275.31v1.787c0 .24-.103.481-.275.653-.172.172-.413.275-.653.275-.24 0-.482-.103-.653-.275-.172-.172-.275-.412-.275-.653v-1.753c0-.172-.07-.275-.241-.275-1.478-.103-2.853-.344-4.125-.756-.31-.104-.55-.275-.756-.55-.172-.275-.275-.585-.275-.894 0-.24.103-.447.31-.585.205-.137.446-.171.687-.068 1.375.55 2.784.86 4.159.928.172 0 .24-.069.24-.24V20.83c-.034-.172-.103-.275-.274-.343" transform="translate(160)"/>
                    </g>
                </g>
            </g>
        </g>
    </g>
</svg>
