<svg xmlns="http://www.w3.org/2000/svg" width="40" height="51" viewBox="0 0 40 51">
    <defs>
        <filter id="zu5uf75kga">
            <feColorMatrix in="SourceGraphic" values="0 0 0 0 1.000000 0 0 0 0 1.000000 0 0 0 0 1.000000 0 0 0 1.000000 0"/>
        </filter>
    </defs>
    <g fill="none" fill-rule="evenodd" stroke-linejoin="bevel">
        <g>
            <g filter="url(#zu5uf75kga)" transform="translate(-1046 -1814) translate(934 1816)">
                <g stroke="#7AE5D8" stroke-width="3">
                    <path d="M3.136 36.723h-.27C1.29 36.723 0 35.777 0 34.62V22.318c0-1.156 1.29-2.101 2.866-2.101h.27c1.575 0 2.864.945 2.864 2.101v12.303c0 1.156-1.289 2.102-2.864 2.102zM33.196 36.723h.271c1.574 0 2.865-.946 2.865-2.102V22.318c0-1.156-1.29-2.101-2.865-2.101h-.271c-1.576 0-2.864.945-2.864 2.101v12.303c0 1.156 1.288 2.102 2.864 2.102z" transform="translate(114)"/>
                    <path d="M0 22.268v-4.102C0 8.133 8.134 0 18.166 0S36.33 8.133 36.33 18.166v4.102M36.331 34.621c0 4.531-4.355 9.984-8.885 9.984H23.93M14.943 44.42v-.226c0-1.313.945-2.387 2.101-2.387h4.146c1.157 0 2.103 1.074 2.103 2.387v.226c0 1.312-.946 2.387-2.103 2.387h-4.146c-1.156 0-2.101-1.075-2.101-2.387z" transform="translate(114)"/>
                </g>
            </g>
        </g>
    </g>
</svg>
