<svg xmlns="http://www.w3.org/2000/svg" width="20" height="20" viewBox="0 0 20 20">
    <g fill="none" fill-rule="evenodd">
        <g fill="#333" fill-rule="nonzero">
            <g>
                <g>
                    <path d="M18.174 3.37c-.006-.265-.195-.492-.46-.528-1.231-.17-2.446-.464-3.637-.9-1.186-.434-2.498-1.04-3.912-1.839-.18-.101-.349-.102-.528 0C8.232.901 6.93 1.506 5.735 1.942c-1.192.434-2.406.73-3.628.9-.265.036-.45.263-.48.528-.117 5.016.982 9.121 3.286 12.312C6.17 17.42 7.74 18.83 9.637 19.906c.146.108.376.1.547 0 1.883-1.093 3.452-2.494 4.704-4.224 2.308-3.189 3.398-7.296 3.286-12.312zM13.78 14.837c-1.028 1.435-2.318 2.632-3.88 3.594-1.56-.962-2.856-2.155-3.878-3.594-1.98-2.79-2.946-6.358-2.909-10.708 1.09-.178 2.17-.477 3.25-.878 1.081-.401 2.263-.952 3.538-1.652 1.274.7 2.447 1.25 3.528 1.652 1.08.401 2.17.7 3.26.878.037 4.378-.936 7.951-2.91 10.708z" transform="translate(-977 -86) translate(877 86) translate(100)"/>
                </g>
            </g>
        </g>
    </g>
</svg>
