<svg xmlns="http://www.w3.org/2000/svg" width="27" height="27" viewBox="0 0 27 27">
    <g fill="none" fill-rule="evenodd">
        <g fill="#FFF" fill-rule="nonzero">
            <g>
                <g>
                    <path d="M22.038 18.944c.59.123 1.083.858.985 1.593 0 .736-.493 1.226-1.084 1.348H5.687c-.591.123-1.182-.49-1.28-1.348 0-.735.492-1.47 1.181-1.593zm0-6.718c.59 0 1.083.74 1.083 1.602 0 .739-.492 1.232-1.083 1.355H5.785c-.69 0-1.182-.74-1.083-1.602 0-.739.492-1.232 1.083-1.355zm0-6.718c.69 0 1.182.74 1.083 1.602 0 .739-.492 1.232-1.083 1.355H5.785c-.69-.123-1.182-.863-1.083-1.602 0-.739.492-1.232 1.083-1.355z" transform="translate(-330 -17) translate(321 8) translate(9 9)"/>
                </g>
            </g>
        </g>
    </g>
</svg>
