<svg xmlns="http://www.w3.org/2000/svg" width="27" height="27" viewBox="0 0 27 27">
    <g fill="none" fill-rule="evenodd">
        <g fill="#FFF" fill-rule="nonzero">
            <g>
                <g>
                    <path d="M24.538 23.08l-5.85-5.85c1.316-1.643 2.032-3.687 2.028-5.792 0-5.124-4.153-9.278-9.278-9.278-5.124 0-9.278 4.154-9.278 9.278 0 5.124 4.154 9.278 9.278 9.278 2.19 0 4.204-.759 5.792-2.029l5.85 5.85c.193.195.456.303.729.303.417 0 .793-.251.952-.636.16-.385.072-.829-.223-1.124zM11.61 18.9c-4.026 0-7.29-3.264-7.29-7.29s3.264-7.29 7.29-7.29 7.29 3.264 7.29 7.29-3.264 7.29-7.29 7.29z" transform="translate(-230 -17) translate(221 8) translate(9 9)"/>
                </g>
            </g>
        </g>
    </g>
</svg>
