<svg xmlns="http://www.w3.org/2000/svg" width="49" height="36" viewBox="0 0 49 36">
    <g fill="none" fill-rule="evenodd">
        <g fill="#FFF" fill-rule="nonzero">
            <g>
                <path d="M167.559 17.193l-2.815-4.689c-1.839-3.062-4.841-4.933-8.344-5.24v-5.84c0-.786-.642-1.424-1.435-1.424h-30.53C123.644 0 123 .638 123 1.425v28.8c0 .786.643 1.424 1.436 1.424h3.273c.518 2.48 2.737 4.351 5.388 4.351 2.65 0 4.87-1.87 5.388-4.35h16.48c.075 0 .149-.008.22-.02h2.092c.511 2.49 2.734 4.37 5.392 4.37 2.658 0 4.88-1.88 5.392-4.37h2.503c.793 0 1.436-.637 1.436-1.424v-8.549c0-2.443-1.987-4.434-4.441-4.464zm-34.446 16.773c-1.8 0-3.265-1.454-3.265-3.24 0-1.787 1.465-3.24 3.265-3.24s3.264 1.453 3.264 3.24c0 1.786-1.464 3.24-3.264 3.24zm20.963-4.653h-15.819c-.762-2.247-2.904-3.87-5.422-3.87-2.517 0-4.278 1.623-5.04 3.87h-2.471V2.336h28.752v26.977zm8.689-1.827c1.8 0 3.264 1.453 3.264 3.24 0 1.786-1.464 3.24-3.264 3.24-1.8 0-3.265-1.454-3.265-3.24 0-1.787 1.465-3.24 3.265-3.24zm-6.364-17.36c2.486.288 4.548 1.624 5.877 3.837l1.939 3.23h-3.893c-.793 0-1.435.637-1.435 1.424 0 .787.642 1.425 1.435 1.425h7.178c.897 0 1.627.724 1.627 1.615v7.124h-1.251c-.739-2.152-2.794-3.704-5.21-3.704-2.414 0-4.47 1.552-5.208 3.704h-1.06V10.127z" transform="translate(-189 -1821) translate(66 1821)"/>
            </g>
        </g>
    </g>
</svg>
