<svg xmlns="http://www.w3.org/2000/svg" width="25" height="25" viewBox="0 0 25 25">
    <g fill="none" fill-rule="evenodd">
        <g fill="#FFF" fill-rule="nonzero">
            <g>
                <path d="M15.292 9.503v-3.03c0-.206-.106-.395-.28-.503l-1.91-1.168V.589c0-.326-.262-.589-.587-.589H7.317c-.325 0-.589.263-.589.589v4.214L4.822 5.971c-.174.107-.281.296-.281.501v14.684c0 .326.264.589.589.589h4.679c.854 1.872 2.73 3.183 4.92 3.183 2.984 0 5.414-2.428 5.414-5.415.002-2.673-4.117-8.918-4.851-10.01zM7.905 1.177h4.021v3.09h-4.02v-3.09zM5.72 20.567v-4.38h2.389c.325 0 .588-.265.588-.59 0-.325-.263-.588-.588-.588H5.719v-3.163h2.389c.325 0 .588-.265.588-.59 0-.325-.263-.589-.588-.589H5.719V6.801l2.216-1.356h3.964L14.114 6.8v2.78c-.875 1.309-4.8 7.327-4.8 9.935 0 .36.04.71.108 1.053l-3.703-.002zm9.01 3.183c-2.337 0-4.24-1.9-4.24-4.236 0-1.82 2.723-6.386 4.24-8.725 1.52 2.34 4.238 6.905 4.238 8.725 0 2.335-1.9 4.236-4.238 4.236zm.588-1.09c0 .325-.262.59-.588.59-2.061 0-3.736-1.676-3.736-3.736 0-.325.264-.589.589-.589.324 0 .588.264.588.59 0 1.41 1.148 2.557 2.559 2.557.326 0 .588.263.588.589z" transform="translate(-890 -136) translate(890 136)"/>
            </g>
        </g>
    </g>
</svg>
